# xmcd
#
# Track frame offsets: 
#        150
#        20799
#        46861
#        73636
#        111916
#        130054
#        142045
#        151344
#        163703
#        178625
#        189579
#        210519
#        222452
#        245562
#        270113
#        284569
#
# Disc length: 3966 seconds
#
# Revision: 2
# Processed by: cddbd v1.5.2PL0 Copyright (c) Steve Scherf et al.
# Submitted via: ExactAudioCopyFreeDBPlugin 1.0
#
DISCID=f10f7c10
DTITLE=Various Artist - emu2 most touching
DYEAR=2006
DGENRE=Soundtrack
TTITLE0=岸利至 - ガイアの夜明け～鼓動～
TTITLE1=新井誠志 - 夜空の花
TTITLE2=松谷卓 - いま、会いにゆきます／時を越えて
TTITLE3=松谷卓 - 「県庁の星」テーマ／真実を求めて
TTITLE4=NAOTO - 「ラヴ・パレード」ヴァイオリン・バージョン
TTITLE5=クラウス・バデルト - Freedom of the Wa
TTITLE6=池頼広 - 洗脳
TTITLE7=池頼広 - 女王のテーマ
TTITLE8=武部聡志 - 「僕らの音楽」オープニング・テーマ
TTITLE9=松下奈緒＆大島ミチル - 「アジアンタム　ブルー」メインテーマ
TTITLE10=松下奈緒 - 夏の美術館
TTITLE11=The Eccentric Opera - ソナチネ
TTITLE12=葉加瀬太郎 - エトピリカ～情熱大陸エンディングテーマ
TTITLE13=ハジ perdomerd by 古川展生 - プレリュード
TTITLE14=西村由紀江 - 明日を信じて～フィルムバージョン～
TTITLE15=佐藤直紀 - ALWAYS 三丁目の夕日　Opening Title
EXTD=YEAR: 2006
EXTT0=
EXTT1=
EXTT2=
EXTT3=
EXTT4=
EXTT5=
EXTT6=
EXTT7=
EXTT8=
EXTT9=
EXTT10=
EXTT11=
EXTT12=
EXTT13=
EXTT14=
EXTT15=
PLAYORDER=
